# xmcd
#
# Track frame offsets:
#	150
#	10517
#	23252
#	33822
#	43007
#	52757
#	69450
#	81152
#	91230
#	105954
#
# Disc length: 1539 seconds
#
# Revision: 0
# Processed by: cddbd v1.4PL0 Copyright (c) Steve Scherf et al.
# Submitted via: dBpowerAMP V4.0
#
DISCID=5b06010a
DTITLE=Sunny - Cowboy Classics
DYEAR=1900
DGENRE=Country
TTITLE0=San Antonio Rose
TTITLE1=Sweet Dreams
TTITLE2=Your Cheatin' Heart
TTITLE3=Tennessee Waltz
TTITLE4=Amazing Grace
TTITLE5=Break It To Me Gently
TTITLE6=I'm Sorry
TTITLE7=You Ain't Woman Enough To Take My Man
TTITLE8=Spiders And Snakes
TTITLE9=When Will I Be Loved
EXTD=Sunny was star singer at Branson's Wild West Show (no longer open)
EXTT0=
EXTT1=
EXTT2=
EXTT3=
EXTT4=
EXTT5=
EXTT6=
EXTT7=
EXTT8=
EXTT9=
PLAYORDER=
